<?xml version="1.0" standalone="no"?>
<!DOCTYPE svg PUBLIC "-//W3C//DTD SVG 20010904//EN"
 "http://www.w3.org/TR/2001/REC-SVG-20010904/DTD/svg10.dtd">
<svg version="1.0" xmlns="http://www.w3.org/2000/svg"
 width="300.000000pt" height="300.000000pt" viewBox="0 0 300.000000 300.000000"
 preserveAspectRatio="xMidYMid meet">
<metadata>
Created by potrace 1.10, written by Peter Selinger 2001-2011
</metadata>
<g transform="translate(0.000000,300.000000) scale(0.100000,-0.100000)"
fill="#000000" stroke="none">
<path d="M617 1888 c-8 -18 -42 -94 -76 -168 l-61 -135 74 -165 74 -165 90 -3
89 -3 -34 73 c-20 40 -54 116 -78 168 l-42 96 77 167 78 167 -89 0 -89 0 -13
-32z m113 -21 c0 -7 -25 -70 -55 -140 -30 -70 -55 -135 -55 -144 0 -10 25 -74
55 -142 30 -68 55 -130 55 -138 0 -8 -13 -13 -36 -13 -35 0 -35 0 -88 113 -91
192 -89 165 -21 317 32 73 65 138 72 146 18 18 73 19 73 1z"/>
<path d="M1020 1917 c0 -2 6 -17 14 -33 8 -16 42 -90 76 -164 l61 -134 -74
-168 -75 -168 87 0 87 0 75 167 75 168 -76 167 -75 167 -87 1 c-49 0 -88 -2
-88 -3z m154 -59 c8 -13 40 -80 71 -149 l56 -125 -56 -125 c-75 -165 -78 -169
-121 -169 -43 0 -45 -7 25 150 28 63 51 129 51 146 0 17 -25 86 -55 152 -30
67 -55 126 -55 132 0 5 16 10 35 10 25 0 39 -6 49 -22z"/>
<path d="M1585 1908 c-2 -7 -41 -152 -85 -322 -45 -171 -84 -316 -87 -323 -4
-10 14 -13 80 -13 l85 0 21 78 c11 42 51 193 89 335 l69 257 -84 0 c-58 0 -85
-4 -88 -12z m109 -36 c5 -9 -126 -518 -144 -559 -7 -18 -18 -23 -45 -23 -25 0
-35 4 -35 15 0 26 142 549 152 563 12 14 64 17 72 4z"/>
<path d="M2300 1698 l0 -48 -48 0 -48 0 0 -65 0 -65 48 0 48 0 0 -50 0 -50 65
0 65 0 0 50 0 50 50 0 50 0 0 65 0 65 -50 0 -50 0 0 48 0 47 -65 0 -65 0 0
-47z m95 -30 c7 -24 21 -38 48 -51 40 -20 52 -57 18 -57 -21 0 -71 -53 -71
-76 0 -8 -10 -14 -25 -14 -18 0 -25 5 -25 19 0 25 -45 71 -70 71 -35 0 -25 38
15 55 25 10 40 25 50 50 20 45 47 47 60 3z"/>
<path d="M1820 1315 l0 -65 160 0 160 0 0 65 0 65 -160 0 -160 0 0 -65z m275
0 c0 -19 -8 -20 -109 -23 -111 -3 -134 3 -123 33 6 13 24 15 119 13 105 -3
113 -4 113 -23z"/>
</g>
</svg>
