<svg width="72" height="72" viewBox="0 0 72 72" fill="none" xmlns="http://www.w3.org/2000/svg">
  <defs>
    <linearGradient id="badge" x1="12" y1="10" x2="60" y2="62" gradientUnits="userSpaceOnUse">
      <stop stop-color="#4D3848"/>
      <stop offset="0.55" stop-color="#30222F"/>
      <stop offset="1" stop-color="#231A25"/>
    </linearGradient>
    <linearGradient id="stroke" x1="16" y1="12" x2="58" y2="58" gradientUnits="userSpaceOnUse">
      <stop stop-color="#F7E9BF" stop-opacity="0.78"/>
      <stop offset="0.42" stop-color="#7BE0B8" stop-opacity="0.8"/>
      <stop offset="1" stop-color="#EDA1AD" stop-opacity="0.7"/>
    </linearGradient>
    <radialGradient id="sun" cx="0" cy="0" r="1" gradientTransform="translate(49 21) rotate(90) scale(13)" gradientUnits="userSpaceOnUse">
      <stop stop-color="#FFF8E6"/>
      <stop offset="0.48" stop-color="#F7E9BF" stop-opacity="0.95"/>
      <stop offset="1" stop-color="#F0D28E" stop-opacity="0.14"/>
    </radialGradient>
    <linearGradient id="page" x1="22" y1="41" x2="50" y2="56" gradientUnits="userSpaceOnUse">
      <stop stop-color="#F7E9BF" stop-opacity="0.95"/>
      <stop offset="0.6" stop-color="#CFB08B" stop-opacity="0.86"/>
      <stop offset="1" stop-color="#EDA1AD" stop-opacity="0.74"/>
    </linearGradient>
    <linearGradient id="thread" x1="24" y1="24" x2="49" y2="43" gradientUnits="userSpaceOnUse">
      <stop stop-color="#7BE0B8"/>
      <stop offset="0.58" stop-color="#F7E9BF"/>
      <stop offset="1" stop-color="#F0D28E"/>
    </linearGradient>
  </defs>

  <rect x="8" y="8" width="56" height="56" rx="18" fill="url(#badge)" stroke="url(#stroke)" stroke-width="1.4"/>
  <circle cx="49" cy="21" r="11" fill="url(#sun)" opacity="0.96"/>
  <path d="M18 50.2C23.5 47.4 28.9 46 34.2 46C35.3 46 36.4 46.1 37.6 46.2V56.1C36.4 55.9 35.1 55.8 33.8 55.8C28.8 55.8 23.8 57.2 18 60.2V50.2Z" fill="url(#page)" fill-opacity="0.94"/>
  <path d="M54 50.2C48.5 47.4 43.1 46 37.8 46C36.7 46 35.6 46.1 34.4 46.2V56.1C35.6 55.9 36.9 55.8 38.2 55.8C43.2 55.8 48.2 57.2 54 60.2V50.2Z" fill="url(#page)" fill-opacity="0.88"/>
  <path d="M36 47.6V58" stroke="#FBF7F2" stroke-opacity="0.55" stroke-width="1.15" stroke-linecap="round"/>
  <path d="M24 42.8C28.1 35.1 32.6 29.2 37.4 25M36.3 25.4C40.8 28 45.1 33.1 48.9 40.8" stroke="url(#thread)" stroke-width="2.45" stroke-linecap="round"/>
  <path d="M24.9 24.6L26.3 28L29.7 29.4L26.3 30.8L24.9 34.2L23.5 30.8L20.1 29.4L23.5 28L24.9 24.6Z" fill="#F7E9BF"/>
  <path d="M17 46.3C22.8 42.2 29.2 40.2 36 40.2C42.9 40.2 49.2 42.2 55 46.3" stroke="#FBF7F2" stroke-opacity="0.16" stroke-width="1.8" stroke-linecap="round"/>
  <circle cx="19" cy="21" r="1.5" fill="#7BE0B8" fill-opacity="0.84"/>
  <circle cx="56" cy="29" r="1.3" fill="#EDA1AD" fill-opacity="0.88"/>
</svg>
