<svg width="1280" height="720" viewBox="0 0 1280 720" fill="none" xmlns="http://www.w3.org/2000/svg">
  <rect width="1280" height="720" rx="32" fill="#0B0A0D"/>
  <rect x="28" y="28" width="1224" height="664" rx="26" fill="#151116" stroke="#4F3825" stroke-width="4"/>
  <rect x="70" y="70" width="1140" height="84" rx="18" fill="#1D171C"/>
  <rect x="102" y="96" width="180" height="30" rx="15" fill="#D2A26D"/>
  <rect x="306" y="96" width="112" height="30" rx="15" fill="#2C2329"/>
  <rect x="434" y="96" width="112" height="30" rx="15" fill="#2C2329"/>
  <rect x="70" y="184" width="480" height="460" rx="28" fill="#191318"/>
  <rect x="580" y="184" width="630" height="460" rx="28" fill="#191318"/>
  <rect x="110" y="224" width="210" height="24" rx="12" fill="#F8E3CC"/>
  <rect x="110" y="266" width="330" height="18" rx="9" fill="#4F3C2E"/>
  <rect x="110" y="300" width="280" height="18" rx="9" fill="#4F3C2E"/>
  <rect x="110" y="352" width="400" height="252" rx="24" fill="#120E12" stroke="#6B4D32" stroke-width="4"/>
  <circle cx="308" cy="472" r="70" fill="#D2A26D" fill-opacity="0.14"/>
  <path d="M308 410C347.764 410 380 442.236 380 482C380 521.764 347.764 554 308 554C268.236 554 236 521.764 236 482C236 442.236 268.236 410 308 410Z" fill="#21171A" stroke="#D2A26D" stroke-width="10"/>
  <rect x="284" y="364" width="48" height="56" rx="20" fill="#21171A" stroke="#D2A26D" stroke-width="8"/>
  <circle cx="308" cy="338" r="28" fill="#21171A" stroke="#D2A26D" stroke-width="8"/>
  <rect x="620" y="224" width="220" height="24" rx="12" fill="#F8E3CC"/>
  <rect x="620" y="266" width="500" height="18" rx="9" fill="#4F3C2E"/>
  <rect x="620" y="300" width="460" height="18" rx="9" fill="#4F3C2E"/>
  <rect x="620" y="352" width="550" height="114" rx="20" fill="#120E12" stroke="#6B4D32" stroke-width="4"/>
  <rect x="620" y="494" width="264" height="110" rx="20" fill="#120E12" stroke="#6B4D32" stroke-width="4"/>
  <rect x="906" y="494" width="264" height="110" rx="20" fill="#120E12" stroke="#6B4D32" stroke-width="4"/>
  <rect x="650" y="382" width="156" height="18" rx="9" fill="#D2A26D"/>
  <rect x="650" y="416" width="210" height="16" rx="8" fill="#3A2E39"/>
  <rect x="650" y="530" width="112" height="46" rx="16" fill="#D2A26D"/>
  <rect x="936" y="530" width="112" height="46" rx="16" fill="#9C7BFF"/>
</svg>
